<svg xmlns="http://www.w3.org/2000/svg" version="1.1" xmlns:xlink="http://www.w3.org/1999/xlink" xmlns:svgjs="http://svgjs.com/svgjs" width="1440" height="560" preserveAspectRatio="none" viewBox="0 0 1440 560"><g mask="url(&quot;#SvgjsMask1045&quot;)" fill="none"><rect width="1440" height="560" x="0" y="0" fill="url(#SvgjsLinearGradient1046)"></rect><path d="M-51.77 351.64L-51.77 351.64" stroke="#132e65" stroke-width="1.5"></path><path d="M-51.77 351.64L65.85 338.42" stroke="#132e65" stroke-width="1.5"></path><path d="M-51.77 351.64L50.81 556.34" stroke="#132e65" stroke-width="1.5"></path><path d="M-51.77 351.64L260 341.79" stroke="#132e65" stroke-width="1.5"></path><path d="M-51.77 351.64L-65.2 689.08" stroke="#132e65" stroke-width="1.5"></path><path d="M-51.77 351.64L257.4 547.8" stroke="#132e65" stroke-width="1.5"></path><path d="M-51.77 351.64L89.56 710.88" stroke="#132e65" stroke-width="1.5"></path><path d="M-65.2 689.08L-65.2 689.08" stroke="#132e65" stroke-width="1.5"></path><path d="M-65.2 689.08L89.56 710.88" stroke="#132e65" stroke-width="1.5"></path><path d="M65.85 338.42L65.85 338.42" stroke="#132e65" stroke-width="1.5"></path><path d="M65.85 338.42L260 341.79" stroke="#132e65" stroke-width="1.5"></path><path d="M65.85 338.42L50.81 556.34" stroke="#132e65" stroke-width="1.5"></path><path d="M65.85 338.42L257.4 547.8" stroke="#132e65" stroke-width="1.5"></path><path d="M65.85 338.42L393.64 393.36" stroke="#132e65" stroke-width="1.5"></path><path d="M65.85 338.42L189.98 659.69" stroke="#132e65" stroke-width="1.5"></path><path d="M50.81 556.34L50.81 556.34" stroke="#132e65" stroke-width="1.5"></path><path d="M50.81 556.34L89.56 710.88" stroke="#132e65" stroke-width="1.5"></path><path d="M50.81 556.34L189.98 659.69" stroke="#132e65" stroke-width="1.5"></path><path d="M50.81 556.34L-65.2 689.08" stroke="#132e65" stroke-width="1.5"></path><path d="M50.81 556.34L257.4 547.8" stroke="#132e65" stroke-width="1.5"></path><path d="M89.56 710.88L89.56 710.88" stroke="#132e65" stroke-width="1.5"></path><path d="M89.56 710.88L189.98 659.69" stroke="#132e65" stroke-width="1.5"></path><path d="M89.56 710.88L257.4 547.8" stroke="#132e65" stroke-width="1.5"></path><path d="M260 341.79L260 341.79" stroke="#132e65" stroke-width="1.5"></path><path d="M260 341.79L393.64 393.36" stroke="#132e65" stroke-width="1.5"></path><path d="M260 341.79L257.4 547.8" stroke="#132e65" stroke-width="1.5"></path><path d="M257.4 547.8L257.4 547.8" stroke="#132e65" stroke-width="1.5"></path><path d="M257.4 547.8L343.04 560.35" stroke="#132e65" stroke-width="1.5"></path><path d="M257.4 547.8L189.98 659.69" stroke="#132e65" stroke-width="1.5"></path><path d="M257.4 547.8L393.64 393.36" stroke="#132e65" stroke-width="1.5"></path><path d="M257.4 547.8L409.91 701.45" stroke="#132e65" stroke-width="1.5"></path><path d="M189.98 659.69L189.98 659.69" stroke="#132e65" stroke-width="1.5"></path><path d="M189.98 659.69L343.04 560.35" stroke="#132e65" stroke-width="1.5"></path><path d="M189.98 659.69L409.91 701.45" stroke="#132e65" stroke-width="1.5"></path><path d="M189.98 659.69L-65.2 689.08" stroke="#132e65" stroke-width="1.5"></path><path d="M393.64 393.36L393.64 393.36" stroke="#132e65" stroke-width="1.5"></path><path d="M393.64 393.36L533.06 372.42" stroke="#132e65" stroke-width="1.5"></path><path d="M393.64 393.36L497.05 503.71" stroke="#132e65" stroke-width="1.5"></path><path d="M393.64 393.36L343.04 560.35" stroke="#132e65" stroke-width="1.5"></path><path d="M393.64 393.36L643.45 254.06" stroke="#132e65" stroke-width="1.5"></path><path d="M343.04 560.35L343.04 560.35" stroke="#132e65" stroke-width="1.5"></path><path d="M343.04 560.35L409.91 701.45" stroke="#132e65" stroke-width="1.5"></path><path d="M343.04 560.35L497.05 503.71" stroke="#132e65" stroke-width="1.5"></path><path d="M409.91 701.45L409.91 701.45" stroke="#132e65" stroke-width="1.5"></path><path d="M409.91 701.45L497.05 503.71" stroke="#132e65" stroke-width="1.5"></path><path d="M533.06 372.42L533.06 372.42" stroke="#132e65" stroke-width="1.5"></path><path d="M533.06 372.42L497.05 503.71" stroke="#132e65" stroke-width="1.5"></path><path d="M533.06 372.42L680.17 388.33" stroke="#132e65" stroke-width="1.5"></path><path d="M533.06 372.42L643.45 254.06" stroke="#132e65" stroke-width="1.5"></path><path d="M533.06 372.42L682.56 504.87" stroke="#132e65" stroke-width="1.5"></path><path d="M533.06 372.42L343.04 560.35" stroke="#132e65" stroke-width="1.5"></path><path d="M497.05 503.71L497.05 503.71" stroke="#132e65" stroke-width="1.5"></path><path d="M497.05 503.71L682.56 504.87" stroke="#132e65" stroke-width="1.5"></path><path d="M497.05 503.71L680.17 388.33" stroke="#132e65" stroke-width="1.5"></path><path d="M643.45 254.06L643.45 254.06" stroke="#132e65" stroke-width="1.5"></path><path d="M643.45 254.06L680.17 388.33" stroke="#132e65" stroke-width="1.5"></path><path d="M643.45 254.06L817.63 251.18" stroke="#132e65" stroke-width="1.5"></path><path d="M680.17 388.33L680.17 388.33" stroke="#132e65" stroke-width="1.5"></path><path d="M680.17 388.33L682.56 504.87" stroke="#132e65" stroke-width="1.5"></path><path d="M680.17 388.33L824.48 386.25" stroke="#132e65" stroke-width="1.5"></path><path d="M680.17 388.33L795.11 539.63" stroke="#132e65" stroke-width="1.5"></path><path d="M682.56 504.87L682.56 504.87" stroke="#132e65" stroke-width="1.5"></path><path d="M682.56 504.87L795.11 539.63" stroke="#132e65" stroke-width="1.5"></path><path d="M682.56 504.87L689 660.64" stroke="#132e65" stroke-width="1.5"></path><path d="M682.56 504.87L824.48 386.25" stroke="#132e65" stroke-width="1.5"></path><path d="M689 660.64L689 660.64" stroke="#132e65" stroke-width="1.5"></path><path d="M689 660.64L847.79 640.22" stroke="#132e65" stroke-width="1.5"></path><path d="M689 660.64L795.11 539.63" stroke="#132e65" stroke-width="1.5"></path><path d="M689 660.64L497.05 503.71" stroke="#132e65" stroke-width="1.5"></path><path d="M689 660.64L680.17 388.33" stroke="#132e65" stroke-width="1.5"></path><path d="M835.94 93.67L835.94 93.67" stroke="#132e65" stroke-width="1.5"></path><path d="M835.94 93.67L979.67 87.01" stroke="#132e65" stroke-width="1.5"></path><path d="M835.94 93.67L817.63 251.18" stroke="#132e65" stroke-width="1.5"></path><path d="M835.94 93.67L972.47 -43.82" stroke="#132e65" stroke-width="1.5"></path><path d="M835.94 93.67L960.54 246.07" stroke="#132e65" stroke-width="1.5"></path><path d="M835.94 93.67L643.45 254.06" stroke="#132e65" stroke-width="1.5"></path><path d="M817.63 251.18L817.63 251.18" stroke="#132e65" stroke-width="1.5"></path><path d="M817.63 251.18L824.48 386.25" stroke="#132e65" stroke-width="1.5"></path><path d="M817.63 251.18L960.54 246.07" stroke="#132e65" stroke-width="1.5"></path><path d="M824.48 386.25L824.48 386.25" stroke="#132e65" stroke-width="1.5"></path><path d="M824.48 386.25L959.63 359.96" stroke="#132e65" stroke-width="1.5"></path><path d="M795.11 539.63L795.11 539.63" stroke="#132e65" stroke-width="1.5"></path><path d="M795.11 539.63L847.79 640.22" stroke="#132e65" stroke-width="1.5"></path><path d="M795.11 539.63L824.48 386.25" stroke="#132e65" stroke-width="1.5"></path><path d="M847.79 640.22L847.79 640.22" stroke="#132e65" stroke-width="1.5"></path><path d="M847.79 640.22L1004.64 691.24" stroke="#132e65" stroke-width="1.5"></path><path d="M847.79 640.22L961.79 509.94" stroke="#132e65" stroke-width="1.5"></path><path d="M847.79 640.22L682.56 504.87" stroke="#132e65" stroke-width="1.5"></path><path d="M972.47 -43.82L972.47 -43.82" stroke="#132e65" stroke-width="1.5"></path><path d="M972.47 -43.82L979.67 87.01" stroke="#132e65" stroke-width="1.5"></path><path d="M972.47 -43.82L1108.67 -49.32" stroke="#132e65" stroke-width="1.5"></path><path d="M979.67 87.01L979.67 87.01" stroke="#132e65" stroke-width="1.5"></path><path d="M979.67 87.01L1104.02 110.14" stroke="#132e65" stroke-width="1.5"></path><path d="M960.54 246.07L960.54 246.07" stroke="#132e65" stroke-width="1.5"></path><path d="M960.54 246.07L959.63 359.96" stroke="#132e65" stroke-width="1.5"></path><path d="M960.54 246.07L979.67 87.01" stroke="#132e65" stroke-width="1.5"></path><path d="M960.54 246.07L824.48 386.25" stroke="#132e65" stroke-width="1.5"></path><path d="M959.63 359.96L959.63 359.96" stroke="#132e65" stroke-width="1.5"></path><path d="M959.63 359.96L961.79 509.94" stroke="#132e65" stroke-width="1.5"></path><path d="M961.79 509.94L961.79 509.94" stroke="#132e65" stroke-width="1.5"></path><path d="M961.79 509.94L795.11 539.63" stroke="#132e65" stroke-width="1.5"></path><path d="M961.79 509.94L824.48 386.25" stroke="#132e65" stroke-width="1.5"></path><path d="M1004.64 691.24L1004.64 691.24" stroke="#132e65" stroke-width="1.5"></path><path d="M1004.64 691.24L1129.1 705.28" stroke="#132e65" stroke-width="1.5"></path><path d="M1108.67 -49.32L1108.67 -49.32" stroke="#132e65" stroke-width="1.5"></path><path d="M1108.67 -49.32L1104.02 110.14" stroke="#132e65" stroke-width="1.5"></path><path d="M1108.67 -49.32L1288.77 -91.7" stroke="#132e65" stroke-width="1.5"></path><path d="M1108.67 -49.32L979.67 87.01" stroke="#132e65" stroke-width="1.5"></path><path d="M1104.02 110.14L1104.02 110.14" stroke="#132e65" stroke-width="1.5"></path><path d="M1104.02 110.14L1157.04 240.92" stroke="#132e65" stroke-width="1.5"></path><path d="M1104.02 110.14L1263.94 68.48" stroke="#132e65" stroke-width="1.5"></path><path d="M1104.02 110.14L960.54 246.07" stroke="#132e65" stroke-width="1.5"></path><path d="M1157.04 240.92L1157.04 240.92" stroke="#132e65" stroke-width="1.5"></path><path d="M1157.04 240.92L1304.56 198.4" stroke="#132e65" stroke-width="1.5"></path><path d="M1157.04 240.92L1255.61 362.17" stroke="#132e65" stroke-width="1.5"></path><path d="M1157.04 240.92L1117.96 397.32" stroke="#132e65" stroke-width="1.5"></path><path d="M1157.04 240.92L960.54 246.07" stroke="#132e65" stroke-width="1.5"></path><path d="M1157.04 240.92L1263.94 68.48" stroke="#132e65" stroke-width="1.5"></path><path d="M1117.96 397.32L1117.96 397.32" stroke="#132e65" stroke-width="1.5"></path><path d="M1117.96 397.32L1255.61 362.17" stroke="#132e65" stroke-width="1.5"></path><path d="M1117.96 397.32L959.63 359.96" stroke="#132e65" stroke-width="1.5"></path><path d="M1117.96 397.32L961.79 509.94" stroke="#132e65" stroke-width="1.5"></path><path d="M1129.1 705.28L1129.1 705.28" stroke="#132e65" stroke-width="1.5"></path><path d="M1129.1 705.28L1266.55 650.57" stroke="#132e65" stroke-width="1.5"></path><path d="M1129.1 705.28L1290.35 538.52" stroke="#132e65" stroke-width="1.5"></path><path d="M1129.1 705.28L961.79 509.94" stroke="#132e65" stroke-width="1.5"></path><path d="M1129.1 705.28L847.79 640.22" stroke="#132e65" stroke-width="1.5"></path><path d="M1129.1 705.28L1117.96 397.32" stroke="#132e65" stroke-width="1.5"></path><path d="M1288.77 -91.7L1288.77 -91.7" stroke="#132e65" stroke-width="1.5"></path><path d="M1288.77 -91.7L1438.03 -59.79" stroke="#132e65" stroke-width="1.5"></path><path d="M1288.77 -91.7L1263.94 68.48" stroke="#132e65" stroke-width="1.5"></path><path d="M1288.77 -91.7L1418.87 55.25" stroke="#132e65" stroke-width="1.5"></path><path d="M1263.94 68.48L1263.94 68.48" stroke="#132e65" stroke-width="1.5"></path><path d="M1263.94 68.48L1304.56 198.4" stroke="#132e65" stroke-width="1.5"></path><path d="M1263.94 68.48L1418.87 55.25" stroke="#132e65" stroke-width="1.5"></path><path d="M1304.56 198.4L1304.56 198.4" stroke="#132e65" stroke-width="1.5"></path><path d="M1304.56 198.4L1387.91 234.19" stroke="#132e65" stroke-width="1.5"></path><path d="M1304.56 198.4L1255.61 362.17" stroke="#132e65" stroke-width="1.5"></path><path d="M1304.56 198.4L1418.87 55.25" stroke="#132e65" stroke-width="1.5"></path><path d="M1255.61 362.17L1255.61 362.17" stroke="#132e65" stroke-width="1.5"></path><path d="M1290.35 538.52L1290.35 538.52" stroke="#132e65" stroke-width="1.5"></path><path d="M1290.35 538.52L1266.55 650.57" stroke="#132e65" stroke-width="1.5"></path><path d="M1290.35 538.52L1432.89 496.25" stroke="#132e65" stroke-width="1.5"></path><path d="M1266.55 650.57L1266.55 650.57" stroke="#132e65" stroke-width="1.5"></path><path d="M1266.55 650.57L1432.89 496.25" stroke="#132e65" stroke-width="1.5"></path><path d="M1266.55 650.57L1004.64 691.24" stroke="#132e65" stroke-width="1.5"></path><path d="M1438.03 -59.79L1438.03 -59.79" stroke="#132e65" stroke-width="1.5"></path><path d="M1438.03 -59.79L1549.82 -78.87" stroke="#132e65" stroke-width="1.5"></path><path d="M1438.03 -59.79L1418.87 55.25" stroke="#132e65" stroke-width="1.5"></path><path d="M1418.87 55.25L1418.87 55.25" stroke="#132e65" stroke-width="1.5"></path><path d="M1418.87 55.25L1592.02 71.81" stroke="#132e65" stroke-width="1.5"></path><path d="M1387.91 234.19L1387.91 234.19" stroke="#132e65" stroke-width="1.5"></path><path d="M1387.91 234.19L1428.23 388.52" stroke="#132e65" stroke-width="1.5"></path><path d="M1387.91 234.19L1418.87 55.25" stroke="#132e65" stroke-width="1.5"></path><path d="M1428.23 388.52L1428.23 388.52" stroke="#132e65" stroke-width="1.5"></path><path d="M1428.23 388.52L1432.89 496.25" stroke="#132e65" stroke-width="1.5"></path><path d="M1428.23 388.52L1582.62 342.68" stroke="#132e65" stroke-width="1.5"></path><path d="M1428.23 388.52L1553.49 504.85" stroke="#132e65" stroke-width="1.5"></path><path d="M1428.23 388.52L1255.61 362.17" stroke="#132e65" stroke-width="1.5"></path><path d="M1432.89 496.25L1432.89 496.25" stroke="#132e65" stroke-width="1.5"></path><path d="M1432.89 496.25L1553.49 504.85" stroke="#132e65" stroke-width="1.5"></path><path d="M1549.82 -78.87L1549.82 -78.87" stroke="#132e65" stroke-width="1.5"></path><path d="M1549.82 -78.87L1592.02 71.81" stroke="#132e65" stroke-width="1.5"></path><path d="M1592.02 71.81L1592.02 71.81" stroke="#132e65" stroke-width="1.5"></path><path d="M1592.02 71.81L1584.09 195.96" stroke="#132e65" stroke-width="1.5"></path><path d="M1584.09 195.96L1584.09 195.96" stroke="#132e65" stroke-width="1.5"></path><path d="M1584.09 195.96L1582.62 342.68" stroke="#132e65" stroke-width="1.5"></path><path d="M1584.09 195.96L1387.91 234.19" stroke="#132e65" stroke-width="1.5"></path><path d="M1584.09 195.96L1418.87 55.25" stroke="#132e65" stroke-width="1.5"></path><path d="M1582.62 342.68L1582.62 342.68" stroke="#132e65" stroke-width="1.5"></path><path d="M1553.49 504.85L1553.49 504.85" stroke="#132e65" stroke-width="1.5"></path><path d="M1609.23 668.17L1609.23 668.17" stroke="#132e65" stroke-width="1.5"></path><path d="M1609.23 668.17L1553.49 504.85" stroke="#132e65" stroke-width="1.5"></path><path d="M1609.23 668.17L1432.89 496.25" stroke="#132e65" stroke-width="1.5"></path><path d="M1609.23 668.17L1582.62 342.68" stroke="#132e65" stroke-width="1.5"></path><path d="M1609.23 668.17L1428.23 388.52" stroke="#132e65" stroke-width="1.5"></path><circle r="5" cx="-51.77" cy="351.64" fill="#132e65"></circle><circle r="5" cx="-65.2" cy="689.08" fill="#132e65"></circle><circle r="5" cx="65.85" cy="338.42" fill="#132e65"></circle><circle r="5" cx="50.81" cy="556.34" fill="#132e65"></circle><circle r="5" cx="89.56" cy="710.88" fill="#132e65"></circle><circle r="5" cx="260" cy="341.79" fill="#132e65"></circle><circle r="5" cx="257.4" cy="547.8" fill="#132e65"></circle><circle r="5" cx="189.98" cy="659.69" fill="#132e65"></circle><circle r="5" cx="393.64" cy="393.36" fill="#132e65"></circle><circle r="5" cx="343.04" cy="560.35" fill="#132e65"></circle><circle r="5" cx="409.91" cy="701.45" fill="#132e65"></circle><circle r="5" cx="533.06" cy="372.42" fill="#132e65"></circle><circle r="5" cx="497.05" cy="503.71" fill="#132e65"></circle><circle r="5" cx="643.45" cy="254.06" fill="#132e65"></circle><circle r="5" cx="680.17" cy="388.33" fill="#132e65"></circle><circle r="5" cx="682.56" cy="504.87" fill="#132e65"></circle><circle r="5" cx="689" cy="660.64" fill="#132e65"></circle><circle r="5" cx="835.94" cy="93.67" fill="#132e65"></circle><circle r="5" cx="817.63" cy="251.18" fill="#132e65"></circle><circle r="5" cx="824.48" cy="386.25" fill="#132e65"></circle><circle r="5" cx="795.11" cy="539.63" fill="#132e65"></circle><circle r="5" cx="847.79" cy="640.22" fill="#132e65"></circle><circle r="5" cx="972.47" cy="-43.82" fill="#132e65"></circle><circle r="5" cx="979.67" cy="87.01" fill="#132e65"></circle><circle r="5" cx="960.54" cy="246.07" fill="#132e65"></circle><circle r="5" cx="959.63" cy="359.96" fill="#132e65"></circle><circle r="5" cx="961.79" cy="509.94" fill="#132e65"></circle><circle r="5" cx="1004.64" cy="691.24" fill="#132e65"></circle><circle r="5" cx="1108.67" cy="-49.32" fill="#132e65"></circle><circle r="5" cx="1104.02" cy="110.14" fill="#132e65"></circle><circle r="5" cx="1157.04" cy="240.92" fill="#132e65"></circle><circle r="5" cx="1117.96" cy="397.32" fill="#132e65"></circle><circle r="5" cx="1129.1" cy="705.28" fill="#132e65"></circle><circle r="5" cx="1288.77" cy="-91.7" fill="#132e65"></circle><circle r="5" cx="1263.94" cy="68.48" fill="#132e65"></circle><circle r="5" cx="1304.56" cy="198.4" fill="#132e65"></circle><circle r="5" cx="1255.61" cy="362.17" fill="#132e65"></circle><circle r="5" cx="1290.35" cy="538.52" fill="#132e65"></circle><circle r="5" cx="1266.55" cy="650.57" fill="#132e65"></circle><circle r="5" cx="1438.03" cy="-59.79" fill="#132e65"></circle><circle r="5" cx="1418.87" cy="55.25" fill="#132e65"></circle><circle r="5" cx="1387.91" cy="234.19" fill="#132e65"></circle><circle r="5" cx="1428.23" cy="388.52" fill="#132e65"></circle><circle r="5" cx="1432.89" cy="496.25" fill="#132e65"></circle><circle r="5" cx="1549.82" cy="-78.87" fill="#132e65"></circle><circle r="5" cx="1592.02" cy="71.81" fill="#132e65"></circle><circle r="5" cx="1584.09" cy="195.96" fill="#132e65"></circle><circle r="5" cx="1582.62" cy="342.68" fill="#132e65"></circle><circle r="5" cx="1553.49" cy="504.85" fill="#132e65"></circle><circle r="5" cx="1609.23" cy="668.17" fill="#132e65"></circle><path d="M48.01 561.12L48.01 561.12" stroke="hsl(228, 52.6%, 38.7%)" stroke-width="1.5"></path><path d="M48.01 561.12L105.68 678.43" stroke="hsl(228, 52.6%, 38.7%)" stroke-width="1.5"></path><path d="M48.01 561.12L-106.81 556.23" stroke="hsl(228, 52.6%, 38.7%)" stroke-width="1.5"></path><path d="M48.01 561.12L-40.66 701.96" stroke="hsl(228, 52.6%, 38.7%)" stroke-width="1.5"></path><path d="M48.01 561.12L212.94 522.29" stroke="hsl(228, 52.6%, 38.7%)" stroke-width="1.5"></path><path d="M48.01 561.12L233.66 688.89" stroke="hsl(228, 52.6%, 38.7%)" stroke-width="1.5"></path><path d="M48.01 561.12L353.05 685.33" stroke="hsl(228, 52.6%, 38.7%)" stroke-width="1.5"></path><path d="M105.68 678.43L105.68 678.43" stroke="hsl(228, 52.6%, 38.7%)" stroke-width="1.5"></path><path d="M105.68 678.43L233.66 688.89" stroke="hsl(228, 52.6%, 38.7%)" stroke-width="1.5"></path><path d="M105.68 678.43L-40.66 701.96" stroke="hsl(228, 52.6%, 38.7%)" stroke-width="1.5"></path><path d="M105.68 678.43L212.94 522.29" stroke="hsl(228, 52.6%, 38.7%)" stroke-width="1.5"></path><path d="M105.68 678.43L-106.81 556.23" stroke="hsl(228, 52.6%, 38.7%)" stroke-width="1.5"></path><path d="M105.68 678.43L353.05 685.33" stroke="hsl(228, 52.6%, 38.7%)" stroke-width="1.5"></path><path d="M212.94 522.29L212.94 522.29" stroke="hsl(228, 52.6%, 38.7%)" stroke-width="1.5"></path><path d="M212.94 522.29L233.66 688.89" stroke="hsl(228, 52.6%, 38.7%)" stroke-width="1.5"></path><path d="M233.66 688.89L233.66 688.89" stroke="hsl(228, 52.6%, 38.7%)" stroke-width="1.5"></path><path d="M233.66 688.89L353.05 685.33" stroke="hsl(228, 52.6%, 38.7%)" stroke-width="1.5"></path><path d="M650.81 664.05L650.81 664.05" stroke="hsl(228, 52.6%, 38.7%)" stroke-width="1.5"></path><path d="M650.81 664.05L684.23 540.09" stroke="hsl(228, 52.6%, 38.7%)" stroke-width="1.5"></path><path d="M650.81 664.05L502.07 686.41" stroke="hsl(228, 52.6%, 38.7%)" stroke-width="1.5"></path><path d="M650.81 664.05L539.04 536.19" stroke="hsl(228, 52.6%, 38.7%)" stroke-width="1.5"></path><path d="M650.81 664.05L829.72 644.9" stroke="hsl(228, 52.6%, 38.7%)" stroke-width="1.5"></path><path d="M650.81 664.05L797.07 507.67" stroke="hsl(228, 52.6%, 38.7%)" stroke-width="1.5"></path><path d="M1111.66 218.71L1111.66 218.71" stroke="hsl(228, 52.6%, 38.7%)" stroke-width="1.5"></path><path d="M1111.66 218.71L1012.21 245.1" stroke="hsl(228, 52.6%, 38.7%)" stroke-width="1.5"></path><path d="M1111.66 218.71L1268.16 215.29" stroke="hsl(228, 52.6%, 38.7%)" stroke-width="1.5"></path><path d="M1111.66 218.71L1142.28 410.29" stroke="hsl(228, 52.6%, 38.7%)" stroke-width="1.5"></path><path d="M1111.66 218.71L991.89 395.63" stroke="hsl(228, 52.6%, 38.7%)" stroke-width="1.5"></path><path d="M1111.66 218.71L1262.6 373.69" stroke="hsl(228, 52.6%, 38.7%)" stroke-width="1.5"></path><path d="M1111.66 218.71L1299.24 103.64" stroke="hsl(228, 52.6%, 38.7%)" stroke-width="1.5"></path><path d="M1398.61 693.2L1398.61 693.2" stroke="hsl(228, 52.6%, 38.7%)" stroke-width="1.5"></path><path d="M1398.61 693.2L1242.66 638.92" stroke="hsl(228, 52.6%, 38.7%)" stroke-width="1.5"></path><path d="M1398.61 693.2L1450.08 521.69" stroke="hsl(228, 52.6%, 38.7%)" stroke-width="1.5"></path><path d="M1398.61 693.2L1606.83 661.74" stroke="hsl(228, 52.6%, 38.7%)" stroke-width="1.5"></path><path d="M1398.61 693.2L1294.05 503.18" stroke="hsl(228, 52.6%, 38.7%)" stroke-width="1.5"></path><path d="M1398.61 693.2L1131.65 638.54" stroke="hsl(228, 52.6%, 38.7%)" stroke-width="1.5"></path><path d="M1557.03 -56.09L1557.03 -56.09" stroke="hsl(228, 52.6%, 38.7%)" stroke-width="1.5"></path><path d="M1557.03 -56.09L1586.76 76.59" stroke="hsl(228, 52.6%, 38.7%)" stroke-width="1.5"></path><path d="M1557.03 -56.09L1598.92 204.98" stroke="hsl(228, 52.6%, 38.7%)" stroke-width="1.5"></path><path d="M1557.03 -56.09L1415.52 197.79" stroke="hsl(228, 52.6%, 38.7%)" stroke-width="1.5"></path><path d="M1557.03 -56.09L1259.86 -51.34" stroke="hsl(228, 52.6%, 38.7%)" stroke-width="1.5"></path><path d="M1602.67 369.54L1602.67 369.54" stroke="hsl(228, 52.6%, 38.7%)" stroke-width="1.5"></path><path d="M1602.67 369.54L1601.58 510.39" stroke="hsl(228, 52.6%, 38.7%)" stroke-width="1.5"></path><path d="M1602.67 369.54L1598.92 204.98" stroke="hsl(228, 52.6%, 38.7%)" stroke-width="1.5"></path><path d="M1602.67 369.54L1404.54 363.28" stroke="hsl(228, 52.6%, 38.7%)" stroke-width="1.5"></path><path d="M1602.67 369.54L1450.08 521.69" stroke="hsl(228, 52.6%, 38.7%)" stroke-width="1.5"></path><path d="M1602.67 369.54L1415.52 197.79" stroke="hsl(228, 52.6%, 38.7%)" stroke-width="1.5"></path><path d="M-106.81 556.23L-106.81 556.23" stroke="hsl(228, 52.6%, 38.7%)" stroke-width="1.5"></path><path d="M-106.81 556.23L-40.66 701.96" stroke="hsl(228, 52.6%, 38.7%)" stroke-width="1.5"></path><path d="M-106.81 556.23L212.94 522.29" stroke="hsl(228, 52.6%, 38.7%)" stroke-width="1.5"></path><path d="M-106.81 556.23L233.66 688.89" stroke="hsl(228, 52.6%, 38.7%)" stroke-width="1.5"></path><path d="M-40.66 701.96L-40.66 701.96" stroke="hsl(228, 52.6%, 38.7%)" stroke-width="1.5"></path><path d="M-40.66 701.96L233.66 688.89" stroke="hsl(228, 52.6%, 38.7%)" stroke-width="1.5"></path><path d="M408.81 508.16L408.81 508.16" stroke="hsl(228, 52.6%, 38.7%)" stroke-width="1.5"></path><path d="M408.81 508.16L539.04 536.19" stroke="hsl(228, 52.6%, 38.7%)" stroke-width="1.5"></path><path d="M408.81 508.16L353.05 685.33" stroke="hsl(228, 52.6%, 38.7%)" stroke-width="1.5"></path><path d="M408.81 508.16L212.94 522.29" stroke="hsl(228, 52.6%, 38.7%)" stroke-width="1.5"></path><path d="M408.81 508.16L502.07 686.41" stroke="hsl(228, 52.6%, 38.7%)" stroke-width="1.5"></path><path d="M353.05 685.33L353.05 685.33" stroke="hsl(228, 52.6%, 38.7%)" stroke-width="1.5"></path><path d="M353.05 685.33L502.07 686.41" stroke="hsl(228, 52.6%, 38.7%)" stroke-width="1.5"></path><path d="M539.04 536.19L539.04 536.19" stroke="hsl(228, 52.6%, 38.7%)" stroke-width="1.5"></path><path d="M539.04 536.19L684.23 540.09" stroke="hsl(228, 52.6%, 38.7%)" stroke-width="1.5"></path><path d="M539.04 536.19L502.07 686.41" stroke="hsl(228, 52.6%, 38.7%)" stroke-width="1.5"></path><path d="M502.07 686.41L502.07 686.41" stroke="hsl(228, 52.6%, 38.7%)" stroke-width="1.5"></path><path d="M684.23 540.09L684.23 540.09" stroke="hsl(228, 52.6%, 38.7%)" stroke-width="1.5"></path><path d="M684.23 540.09L797.07 507.67" stroke="hsl(228, 52.6%, 38.7%)" stroke-width="1.5"></path><path d="M684.23 540.09L791.38 402.98" stroke="hsl(228, 52.6%, 38.7%)" stroke-width="1.5"></path><path d="M791.38 402.98L791.38 402.98" stroke="hsl(228, 52.6%, 38.7%)" stroke-width="1.5"></path><path d="M791.38 402.98L797.07 507.67" stroke="hsl(228, 52.6%, 38.7%)" stroke-width="1.5"></path><path d="M791.38 402.98L991.89 395.63" stroke="hsl(228, 52.6%, 38.7%)" stroke-width="1.5"></path><path d="M791.38 402.98L829.72 644.9" stroke="hsl(228, 52.6%, 38.7%)" stroke-width="1.5"></path><path d="M791.38 402.98L987.65 558.79" stroke="hsl(228, 52.6%, 38.7%)" stroke-width="1.5"></path><path d="M797.07 507.67L797.07 507.67" stroke="hsl(228, 52.6%, 38.7%)" stroke-width="1.5"></path><path d="M797.07 507.67L829.72 644.9" stroke="hsl(228, 52.6%, 38.7%)" stroke-width="1.5"></path><path d="M829.72 644.9L829.72 644.9" stroke="hsl(228, 52.6%, 38.7%)" stroke-width="1.5"></path><path d="M829.72 644.9L950.02 700.35" stroke="hsl(228, 52.6%, 38.7%)" stroke-width="1.5"></path><path d="M829.72 644.9L684.23 540.09" stroke="hsl(228, 52.6%, 38.7%)" stroke-width="1.5"></path><path d="M829.72 644.9L987.65 558.79" stroke="hsl(228, 52.6%, 38.7%)" stroke-width="1.5"></path><path d="M1012.21 245.1L1012.21 245.1" stroke="hsl(228, 52.6%, 38.7%)" stroke-width="1.5"></path><path d="M991.89 395.63L991.89 395.63" stroke="hsl(228, 52.6%, 38.7%)" stroke-width="1.5"></path><path d="M991.89 395.63L1142.28 410.29" stroke="hsl(228, 52.6%, 38.7%)" stroke-width="1.5"></path><path d="M987.65 558.79L987.65 558.79" stroke="hsl(228, 52.6%, 38.7%)" stroke-width="1.5"></path><path d="M987.65 558.79L1121.95 538.26" stroke="hsl(228, 52.6%, 38.7%)" stroke-width="1.5"></path><path d="M987.65 558.79L950.02 700.35" stroke="hsl(228, 52.6%, 38.7%)" stroke-width="1.5"></path><path d="M987.65 558.79L991.89 395.63" stroke="hsl(228, 52.6%, 38.7%)" stroke-width="1.5"></path><path d="M950.02 700.35L950.02 700.35" stroke="hsl(228, 52.6%, 38.7%)" stroke-width="1.5"></path><path d="M1142.28 410.29L1142.28 410.29" stroke="hsl(228, 52.6%, 38.7%)" stroke-width="1.5"></path><path d="M1142.28 410.29L1262.6 373.69" stroke="hsl(228, 52.6%, 38.7%)" stroke-width="1.5"></path><path d="M1142.28 410.29L1121.95 538.26" stroke="hsl(228, 52.6%, 38.7%)" stroke-width="1.5"></path><path d="M1121.95 538.26L1121.95 538.26" stroke="hsl(228, 52.6%, 38.7%)" stroke-width="1.5"></path><path d="M1121.95 538.26L1131.65 638.54" stroke="hsl(228, 52.6%, 38.7%)" stroke-width="1.5"></path><path d="M1131.65 638.54L1131.65 638.54" stroke="hsl(228, 52.6%, 38.7%)" stroke-width="1.5"></path><path d="M1131.65 638.54L1242.66 638.92" stroke="hsl(228, 52.6%, 38.7%)" stroke-width="1.5"></path><path d="M1259.86 -51.34L1259.86 -51.34" stroke="hsl(228, 52.6%, 38.7%)" stroke-width="1.5"></path><path d="M1259.86 -51.34L1299.24 103.64" stroke="hsl(228, 52.6%, 38.7%)" stroke-width="1.5"></path><path d="M1259.86 -51.34L1268.16 215.29" stroke="hsl(228, 52.6%, 38.7%)" stroke-width="1.5"></path><path d="M1259.86 -51.34L1415.52 197.79" stroke="hsl(228, 52.6%, 38.7%)" stroke-width="1.5"></path><path d="M1259.86 -51.34L1111.66 218.71" stroke="hsl(228, 52.6%, 38.7%)" stroke-width="1.5"></path><path d="M1259.86 -51.34L1586.76 76.59" stroke="hsl(228, 52.6%, 38.7%)" stroke-width="1.5"></path><path d="M1299.24 103.64L1299.24 103.64" stroke="hsl(228, 52.6%, 38.7%)" stroke-width="1.5"></path><path d="M1299.24 103.64L1268.16 215.29" stroke="hsl(228, 52.6%, 38.7%)" stroke-width="1.5"></path><path d="M1299.24 103.64L1415.52 197.79" stroke="hsl(228, 52.6%, 38.7%)" stroke-width="1.5"></path><path d="M1299.24 103.64L1262.6 373.69" stroke="hsl(228, 52.6%, 38.7%)" stroke-width="1.5"></path><path d="M1268.16 215.29L1268.16 215.29" stroke="hsl(228, 52.6%, 38.7%)" stroke-width="1.5"></path><path d="M1268.16 215.29L1415.52 197.79" stroke="hsl(228, 52.6%, 38.7%)" stroke-width="1.5"></path><path d="M1268.16 215.29L1262.6 373.69" stroke="hsl(228, 52.6%, 38.7%)" stroke-width="1.5"></path><path d="M1268.16 215.29L1404.54 363.28" stroke="hsl(228, 52.6%, 38.7%)" stroke-width="1.5"></path><path d="M1268.16 215.29L1142.28 410.29" stroke="hsl(228, 52.6%, 38.7%)" stroke-width="1.5"></path><path d="M1262.6 373.69L1262.6 373.69" stroke="hsl(228, 52.6%, 38.7%)" stroke-width="1.5"></path><path d="M1262.6 373.69L1294.05 503.18" stroke="hsl(228, 52.6%, 38.7%)" stroke-width="1.5"></path><path d="M1262.6 373.69L1404.54 363.28" stroke="hsl(228, 52.6%, 38.7%)" stroke-width="1.5"></path><path d="M1294.05 503.18L1294.05 503.18" stroke="hsl(228, 52.6%, 38.7%)" stroke-width="1.5"></path><path d="M1294.05 503.18L1242.66 638.92" stroke="hsl(228, 52.6%, 38.7%)" stroke-width="1.5"></path><path d="M1294.05 503.18L1450.08 521.69" stroke="hsl(228, 52.6%, 38.7%)" stroke-width="1.5"></path><path d="M1294.05 503.18L1121.95 538.26" stroke="hsl(228, 52.6%, 38.7%)" stroke-width="1.5"></path><path d="M1294.05 503.18L1142.28 410.29" stroke="hsl(228, 52.6%, 38.7%)" stroke-width="1.5"></path><path d="M1294.05 503.18L1404.54 363.28" stroke="hsl(228, 52.6%, 38.7%)" stroke-width="1.5"></path><path d="M1242.66 638.92L1242.66 638.92" stroke="hsl(228, 52.6%, 38.7%)" stroke-width="1.5"></path><path d="M1242.66 638.92L1121.95 538.26" stroke="hsl(228, 52.6%, 38.7%)" stroke-width="1.5"></path><path d="M1242.66 638.92L1450.08 521.69" stroke="hsl(228, 52.6%, 38.7%)" stroke-width="1.5"></path><path d="M1242.66 638.92L1142.28 410.29" stroke="hsl(228, 52.6%, 38.7%)" stroke-width="1.5"></path><path d="M1415.52 197.79L1415.52 197.79" stroke="hsl(228, 52.6%, 38.7%)" stroke-width="1.5"></path><path d="M1415.52 197.79L1404.54 363.28" stroke="hsl(228, 52.6%, 38.7%)" stroke-width="1.5"></path><path d="M1415.52 197.79L1598.92 204.98" stroke="hsl(228, 52.6%, 38.7%)" stroke-width="1.5"></path><path d="M1404.54 363.28L1404.54 363.28" stroke="hsl(228, 52.6%, 38.7%)" stroke-width="1.5"></path><path d="M1404.54 363.28L1450.08 521.69" stroke="hsl(228, 52.6%, 38.7%)" stroke-width="1.5"></path><path d="M1450.08 521.69L1450.08 521.69" stroke="hsl(228, 52.6%, 38.7%)" stroke-width="1.5"></path><path d="M1450.08 521.69L1601.58 510.39" stroke="hsl(228, 52.6%, 38.7%)" stroke-width="1.5"></path><path d="M1586.76 76.59L1586.76 76.59" stroke="hsl(228, 52.6%, 38.7%)" stroke-width="1.5"></path><path d="M1586.76 76.59L1598.92 204.98" stroke="hsl(228, 52.6%, 38.7%)" stroke-width="1.5"></path><path d="M1586.76 76.59L1415.52 197.79" stroke="hsl(228, 52.6%, 38.7%)" stroke-width="1.5"></path><path d="M1586.76 76.59L1299.24 103.64" stroke="hsl(228, 52.6%, 38.7%)" stroke-width="1.5"></path><path d="M1586.76 76.59L1602.67 369.54" stroke="hsl(228, 52.6%, 38.7%)" stroke-width="1.5"></path><path d="M1598.92 204.98L1598.92 204.98" stroke="hsl(228, 52.6%, 38.7%)" stroke-width="1.5"></path><path d="M1601.58 510.39L1601.58 510.39" stroke="hsl(228, 52.6%, 38.7%)" stroke-width="1.5"></path><path d="M1601.58 510.39L1606.83 661.74" stroke="hsl(228, 52.6%, 38.7%)" stroke-width="1.5"></path><path d="M1601.58 510.39L1404.54 363.28" stroke="hsl(228, 52.6%, 38.7%)" stroke-width="1.5"></path><path d="M1601.58 510.39L1398.61 693.2" stroke="hsl(228, 52.6%, 38.7%)" stroke-width="1.5"></path><path d="M1606.83 661.74L1606.83 661.74" stroke="hsl(228, 52.6%, 38.7%)" stroke-width="1.5"></path><path d="M1606.83 661.74L1450.08 521.69" stroke="hsl(228, 52.6%, 38.7%)" stroke-width="1.5"></path><circle r="25" cx="48.01" cy="561.12" fill="url(#SvgjsRadialGradient1047)"></circle><circle r="25" cx="105.68" cy="678.43" fill="url(#SvgjsRadialGradient1047)"></circle><circle r="25" cx="212.94" cy="522.29" fill="url(#SvgjsRadialGradient1047)"></circle><circle r="25" cx="233.66" cy="688.89" fill="url(#SvgjsRadialGradient1047)"></circle><circle r="25" cx="650.81" cy="664.05" fill="url(#SvgjsRadialGradient1047)"></circle><circle r="25" cx="1111.66" cy="218.71" fill="url(#SvgjsRadialGradient1047)"></circle><circle r="25" cx="1398.61" cy="693.2" fill="url(#SvgjsRadialGradient1047)"></circle><circle r="25" cx="1557.03" cy="-56.09" fill="url(#SvgjsRadialGradient1047)"></circle><circle r="25" cx="1602.67" cy="369.54" fill="url(#SvgjsRadialGradient1047)"></circle><circle r="5" cx="-106.81" cy="556.23" fill="#929aba"></circle><circle r="5" cx="-40.66" cy="701.96" fill="#929aba"></circle><circle r="5" cx="408.81" cy="508.16" fill="#929aba"></circle><circle r="5" cx="353.05" cy="685.33" fill="#929aba"></circle><circle r="5" cx="539.04" cy="536.19" fill="#929aba"></circle><circle r="5" cx="502.07" cy="686.41" fill="#929aba"></circle><circle r="5" cx="684.23" cy="540.09" fill="#929aba"></circle><circle r="5" cx="791.38" cy="402.98" fill="#929aba"></circle><circle r="5" cx="797.07" cy="507.67" fill="#929aba"></circle><circle r="5" cx="829.72" cy="644.9" fill="#929aba"></circle><circle r="5" cx="1012.21" cy="245.1" fill="#929aba"></circle><circle r="5" cx="991.89" cy="395.63" fill="#929aba"></circle><circle r="5" cx="987.65" cy="558.79" fill="#929aba"></circle><circle r="5" cx="950.02" cy="700.35" fill="#929aba"></circle><circle r="5" cx="1142.28" cy="410.29" fill="#929aba"></circle><circle r="5" cx="1121.95" cy="538.26" fill="#929aba"></circle><circle r="5" cx="1131.65" cy="638.54" fill="#929aba"></circle><circle r="5" cx="1259.86" cy="-51.34" fill="#929aba"></circle><circle r="5" cx="1299.24" cy="103.64" fill="#929aba"></circle><circle r="5" cx="1268.16" cy="215.29" fill="#929aba"></circle><circle r="5" cx="1262.6" cy="373.69" fill="#929aba"></circle><circle r="5" cx="1294.05" cy="503.18" fill="#929aba"></circle><circle r="5" cx="1242.66" cy="638.92" fill="#929aba"></circle><circle r="5" cx="1415.52" cy="197.79" fill="#929aba"></circle><circle r="5" cx="1404.54" cy="363.28" fill="#929aba"></circle><circle r="5" cx="1450.08" cy="521.69" fill="#929aba"></circle><circle r="5" cx="1586.76" cy="76.59" fill="#929aba"></circle><circle r="5" cx="1598.92" cy="204.98" fill="#929aba"></circle><circle r="5" cx="1601.58" cy="510.39" fill="#929aba"></circle><circle r="5" cx="1606.83" cy="661.74" fill="#929aba"></circle></g><defs><mask id="SvgjsMask1045"><rect width="1440" height="560" fill="#ffffff"></rect></mask><linearGradient x1="100%" y1="50%" x2="0%" y2="50%" gradientUnits="userSpaceOnUse" id="SvgjsLinearGradient1046"><stop stop-color="#0e2a47" offset="0"></stop><stop stop-color="#00459e" offset="1"></stop></linearGradient><radialGradient id="SvgjsRadialGradient1047"><stop stop-color="#ffffff" offset="0.1"></stop><stop stop-color="rgba(36, 52, 116, 1)" offset="0.2"></stop><stop stop-color="rgba(36, 52, 116, 0)" offset="1"></stop></radialGradient></defs></svg>